<svg width="417" height="388" viewBox="0 0 417 388" fill="none" xmlns="http://www.w3.org/2000/svg">
<path d="M416.331 51.9526H0.00585938V336.373H416.331V51.9526Z" fill="white"/>
<path d="M207.304 179.387C92.6379 179.506 -0.0506481 202.746 0.00295292 231.364V335.246C-0.0498531 363.949 93.1746 387.224 208.185 387.222C323.182 387.219 416.384 363.946 416.331 335.246V231.364C416.383 202.664 323.182 179.39 208.185 179.387H207.304Z" fill="#7E56C2"/>
<path d="M208.175 278.682C323.142 278.682 416.342 255.422 416.342 226.73C416.342 198.037 323.142 174.777 208.175 174.777C93.2081 174.777 0.00878906 198.037 0.00878906 226.73C0.00878906 255.422 93.2081 278.682 208.175 278.682Z" fill="white"/>
<path d="M207.301 40.0459C92.6349 40.1648 -0.0535777 63.4045 2.3236e-05 92.0222V195.904C-0.0527828 224.608 93.1717 247.883 208.182 247.881C323.179 247.878 416.381 224.604 416.328 195.904V92.0222C416.381 63.3224 323.179 40.0488 208.182 40.0459H207.301Z" fill="#7E56C2"/>
<path d="M208.172 139.341C323.14 139.341 416.339 116.081 416.339 87.3885C416.339 58.6959 323.14 35.436 208.172 35.436C93.2052 35.436 0.00585938 58.6959 0.00585938 87.3885C0.00585938 116.081 93.2052 139.341 208.172 139.341Z" fill="white"/>
<path d="M208.172 103.905C323.14 103.905 416.339 80.645 416.339 51.9525C416.339 23.2599 323.14 0 208.172 0C93.2052 0 0.00585938 23.2599 0.00585938 51.9525C0.00585938 80.645 93.2052 103.905 208.172 103.905Z" fill="#7E56C2"/>
<path d="M343.196 208.224C359.796 208.224 373.252 195.313 373.252 179.387C373.252 163.461 359.796 150.55 343.196 150.55C326.596 150.55 313.14 163.461 313.14 179.387C313.14 195.313 326.596 208.224 343.196 208.224Z" fill="white"/>
<path d="M343.196 347.509C359.796 347.509 373.252 334.598 373.252 318.672C373.252 302.746 359.796 289.835 343.196 289.835C326.596 289.835 313.14 302.746 313.14 318.672C313.14 334.598 326.596 347.509 343.196 347.509Z" fill="white"/>
</svg>
